<mxfile host="app.diagrams.net" agent="Mozilla/5.0 (Macintosh; Intel Mac OS X 10_15_7) AppleWebKit/537.36 (KHTML, like Gecko) Chrome/133.0.0.0 Safari/537.36" version="26.0.16">
  <diagram name="第 1 页" id="4XyvHDbXee3UVxCxzIei">
    <mxGraphModel dx="881" dy="1255" grid="1" gridSize="10" guides="1" tooltips="1" connect="1" arrows="1" fold="1" page="1" pageScale="1" pageWidth="827" pageHeight="1169" math="0" shadow="0">
      <root>
        <mxCell id="0" />
        <mxCell id="1" parent="0" />
        <mxCell id="S8YN2sXNwx94foVtgziK-1" value="" style="rounded=0;whiteSpace=wrap;html=1;strokeColor=none;" vertex="1" parent="1">
          <mxGeometry y="330" width="970" height="360" as="geometry" />
        </mxCell>
        <mxCell id="S8YN2sXNwx94foVtgziK-2" value="1. Business Database Research" style="rounded=0;whiteSpace=wrap;html=1;" vertex="1" parent="1">
          <mxGeometry x="50" y="455" width="120" height="60" as="geometry" />
        </mxCell>
        <mxCell id="S8YN2sXNwx94foVtgziK-3" value="2. Data Ingestion" style="rounded=0;whiteSpace=wrap;html=1;" vertex="1" parent="1">
          <mxGeometry x="200" y="455" width="120" height="60" as="geometry" />
        </mxCell>
        <mxCell id="S8YN2sXNwx94foVtgziK-4" value="3. Business Domain Segmentation" style="rounded=0;whiteSpace=wrap;html=1;" vertex="1" parent="1">
          <mxGeometry x="354" y="455" width="120" height="60" as="geometry" />
        </mxCell>
        <mxCell id="S8YN2sXNwx94foVtgziK-5" value="4.&amp;nbsp;Dimensional Modeling Design" style="rounded=0;whiteSpace=wrap;html=1;" vertex="1" parent="1">
          <mxGeometry x="510" y="455" width="120" height="60" as="geometry" />
        </mxCell>
        <mxCell id="S8YN2sXNwx94foVtgziK-6" value="5.Design Review" style="rounded=0;whiteSpace=wrap;html=1;" vertex="1" parent="1">
          <mxGeometry x="660" y="455" width="120" height="60" as="geometry" />
        </mxCell>
        <mxCell id="S8YN2sXNwx94foVtgziK-7" value="6. Code Development" style="rounded=0;whiteSpace=wrap;html=1;" vertex="1" parent="1">
          <mxGeometry x="810" y="455" width="120" height="60" as="geometry" />
        </mxCell>
        <mxCell id="S8YN2sXNwx94foVtgziK-8" value="&lt;font style=&quot;font-size: 17px;&quot;&gt;&lt;b&gt;Data Warehouse Modelling Standard Operation Procedure (SOP)&amp;nbsp;&lt;/b&gt;&lt;/font&gt;" style="text;html=1;align=center;verticalAlign=middle;whiteSpace=wrap;rounded=0;" vertex="1" parent="1">
          <mxGeometry x="220" y="400" width="530" height="30" as="geometry" />
        </mxCell>
      </root>
    </mxGraphModel>
  </diagram>
</mxfile>
